<svg id="Layer_1" data-name="Layer 1" xmlns="http://www.w3.org/2000/svg" xmlns:xlink="http://www.w3.org/1999/xlink" viewBox="0 0 300 300"><defs><style>.cls-1{fill:url(#linear-gradient);}.cls-2{fill:url(#linear-gradient-2);}</style><linearGradient id="linear-gradient" x1="-99.35" y1="176.58" x2="334.81" y2="95.94" gradientUnits="userSpaceOnUse"><stop offset="0" stop-color="#0c0c0c"/><stop offset="0.27" stop-color="#151515"/><stop offset="0.72" stop-color="#2e2d2f"/><stop offset="1" stop-color="#414042"/></linearGradient><linearGradient id="linear-gradient-2" x1="-93.41" y1="208.54" x2="340.75" y2="127.9" xlink:href="#linear-gradient"/></defs><path class="cls-1" d="M129.42,143.22v-.06l0-6.37c0-26.74,1-51.26,2.89-72.88a15.91,15.91,0,1,0-31.75-1.43v76.08a143,143,0,0,1-37.82.6v-100A18.48,18.48,0,0,0,44.25,20.64h-1A18.45,18.45,0,0,0,24.86,40.31c1.52,23.21,8.73,142.8.73,218.64A18.48,18.48,0,0,0,44,279.36h.3a18.49,18.49,0,0,0,18.47-18.47V161a152.21,152.21,0,0,1,37.82.78v75.73a15.93,15.93,0,0,0,15.91,15.91h.42a15.92,15.92,0,0,0,15.89-16.85C130.64,201.39,129.55,170.86,129.42,143.22Z"/><path class="cls-2" d="M278.6,234.39c-20.88-27.63-34.47-47.66-43.2-63.71,28.59-9.45,45.7-36.91,43.11-70.48C276,67,254.39,45.38,220.83,42.48,191.38,40,170.17,47.36,157.9,64.32c-.46.6-1.31,1.83-1.31,1.83l-1.19,1.71.27,2.08c0,.16,2,15.79,2.53,29.15.17,4.72.32,9.83.45,15.26.91,40.48-.11,95.2-2.53,136.15a12.81,12.81,0,0,0,12.78,13.62h1.49a12.37,12.37,0,0,0,8.85-3.68,14.1,14.1,0,0,0,3.93-10c-.32-33.43-.09-63.48.6-83.13A68.67,68.67,0,0,0,209.42,174c6.65,8.94,35.09,51.27,44.91,65.89,5.15,7.66,5.18,7.69,5.36,7.93,4.09,5.42,10.07,6.68,15.24,3.21l1.2-.82a10.66,10.66,0,0,0,4.63-7.16A11.32,11.32,0,0,0,278.6,234.39Zm-64.82-99.75c-16.91,0-20.88-8.51-25.4-26.57-1.85-7.4-.39-14.56,3.92-19.15,3.38-3.61,8.23-5.45,14.22-5.45a35.37,35.37,0,0,1,6.28.6l3.79.67c9,1.55,18.4,3.15,21.92,8.55,2.1,3.21,2.32,8.18.67,14.78l-.51,2.07C234.89,125.42,232.61,134.64,213.78,134.64Zm-2.1,39.45h0Z"/></svg>